inDegrees=no
num_controls=7
num_derivatives=13
num_iterations=112
num_multipliers=7
num_parameters=0
num_slacks=7
num_states=26
objective=4.189267
objective_accelerations=0.297418
objective_balance=0.079803
objective_effort=0.295176
objective_height=3.434844
objective_ligament=0.082026
solver_duration=1215.249949
status=Solve_Succeeded
success=true
DataType=double
version=3
OpenSimVersion=4.4-2022-07-23-0e9fedc
endheader
time	/jointset/ground_pelvis/pelvis_tilt/value	/jointset/ground_pelvis/pelvis_tx/value	/jointset/ground_pelvis/pelvis_ty/value	/jointset/hip_l/hip_flexion_l/value	/jointset/hip_l/hip_adduction_l/value	/jointset/hip_l/hip_rotation_l/value	/jointset/back/lumbar_extension/value	/jointset/patellofemoral_l/patellar_flexion_l/value	/jointset/knee_l/knee_flexion_l/value	/jointset/knee_l/knee_adduction_l/value	/jointset/knee_l/knee_rotation_l/value	/jointset/ankle_l/ankle_angle_l/value	/jointset/subtalar_l/subtalar_angle_l/value	/jointset/ground_pelvis/pelvis_tilt/speed	/jointset/ground_pelvis/pelvis_tx/speed	/jointset/ground_pelvis/pelvis_ty/speed	/jointset/hip_l/hip_flexion_l/speed	/jointset/hip_l/hip_adduction_l/speed	/jointset/hip_l/hip_rotation_l/speed	/jointset/back/lumbar_extension/speed	/jointset/patellofemoral_l/patellar_flexion_l/speed	/jointset/knee_l/knee_flexion_l/speed	/jointset/knee_l/knee_adduction_l/speed	/jointset/knee_l/knee_rotation_l/speed	/jointset/ankle_l/ankle_angle_l/speed	/jointset/subtalar_l/subtalar_angle_l/speed	/forceset/tau_hip_flexion_l	/forceset/tau_hip_adduction_l	/forceset/tau_hip_rotation_l	/forceset/tau_knee_flexion_l	/forceset/tau_ankle_angle_l	/forceset/tau_subtalar_angle_l	/forceset/tau_lumbar_extension	lambda_cid13_p0	lambda_cid13_p1	lambda_cid13_p2	lambda_cid13_p3	lambda_cid13_p4	lambda_cid13_p5	lambda_cid14_p0	/jointset/ground_pelvis/pelvis_tilt/accel	/jointset/ground_pelvis/pelvis_tx/accel	/jointset/ground_pelvis/pelvis_ty/accel	/jointset/hip_l/hip_flexion_l/accel	/jointset/hip_l/hip_adduction_l/accel	/jointset/hip_l/hip_rotation_l/accel	/jointset/back/lumbar_extension/accel	/jointset/patellofemoral_l/patellar_flexion_l/accel	/jointset/knee_l/knee_flexion_l/accel	/jointset/knee_l/knee_adduction_l/accel	/jointset/knee_l/knee_rotation_l/accel	/jointset/ankle_l/ankle_angle_l/accel	/jointset/subtalar_l/subtalar_angle_l/accel	gamma_cid13_p0	gamma_cid13_p1	gamma_cid13_p2	gamma_cid13_p3	gamma_cid13_p4	gamma_cid13_p5	gamma_cid14_p0
0	-0.1601683095997073	0.05857495920688715	0.8979987742854187	0.3774920279260975	-0.2591366455322133	-0.2729762454267614	-0.0126506700172305	0.03223623128439052	0.03223623128433527	-0.174532885134117	0.1745329077258123	-0.04231376238535053	-0.009261004922278581	0	0	0	0	0	0	0	0	0	0	0	0	0	0.1454367533036608	-0.1026767098610741	-0.05858154093899255	-0.3569034808805389	0.4307781714231224	-0.0506422738661549	-0.07792549658917503	96.33189589715286	-0.2623024178154914	5.795190275872868	-57.69199083671235	-603.0157559671285	-80.63530496471544	-39.07581221202782	-1.635075118548938	-0.3641119990362115	-0.6136046225758081	7.003326246318829	-1.093055551616391	2.985538239120474	-4.459622842020893	8.395904154870479	8.395904154871268	0.205657189226544	0.0134590038345453	3.281172456176541	-0.3558339485273458	-4.363882687671226e-08	5.906810631237898e-08	8.383190514997216e-08	2.254910204354679e-08	6.999999281059524e-11	-6.50994448783854e-08	-1.140068034097344e-08
0.01	-0.1602453902422758	0.05855579019118361	0.8979688419574982	0.3778331363305881	-0.2591905388401471	-0.2728272824854795	-0.01287409157358304	0.03264656286563469	0.03264656286566963	-0.1745234007631142	0.1745306257263538	-0.04215492537773546	-0.009279255624378428	-0.01523962105070524	-0.003951695270187246	-0.005970581594025504	0.06798365345180091	-0.01070868363121945	0.0296453096062889	-0.0444361031642076	0.08171043831383447	0.08171043831384407	0.001918708595400872	-0.0004447794128875953	0.03146312182483138	-0.003652563785061488	0.1348454860617811	-0.1117435498462835	-0.05563310195693137	-0.3382138295339103	0.3985552432409375	-0.03044328737366283	-0.07060062233803284	86.68003805879701	-7.09134420270769	6.594471252920876	-50.34366033112106	-603.4179381491253	-93.10519144585777	-39.08735331786774	-1.441935153907997	-0.4283776006314194	-0.5864023154812896	6.660174809663528	-1.049303024786378	2.931925828042161	-4.398372836931511	8.005234260224368	8.005234260225341	0.1882761313981212	-0.07171152771086742	3.033235927301019	-0.3703494841442264	-5.422648396691489e-08	1.014783934812128e-07	8.407736278297342e-08	3.331048029622064e-08	-7.876395068872652e-08	-2.28432311734199e-08	-1.064472925681107e-08
0.02	-0.1604695730064747	0.0584935683608538	0.897879680336103	0.3788469392525672	-0.2593494246355743	-0.2723862867467696	-0.01353442791824906	0.03386332294814273	0.03386332294817066	-0.1744940696178183	0.17452424290956	-0.04169058637553757	-0.00933410834245875	-0.02942042432437666	-0.008610562925253697	-0.01184585869489431	0.1345389035057382	-0.02099849749891387	0.05840655947888638	-0.08738295766081011	0.1612857002510434	0.1612857002510531	0.003969354658781087	-0.0008201633801338184	0.06110039891623378	-0.007320403196101372	0.124254218819434	-0.1208103898315536	-0.05268466297530497	-0.3195241781875774	0.3663323150586022	-0.01024430088125809	-0.06327574808711579	77.0956237405303	-13.93426929438982	7.39834024125851	-43.22016391082936	-602.8659899487767	-105.4731528977673	-39.12167007522631	-1.423311563142104	-0.50554647601206	-0.5945437239445357	6.717645566745837	-1.009281598912306	2.808726292380339	-4.161773108499653	7.968868879545663	7.968868879544545	0.232044682820455	0.0273380929647716	2.916003509490488	-0.3588890737239585	-6.481414105711752e-08	1.438886806500466e-07	8.432282041597468e-08	4.407185854889449e-08	-1.575979013702636e-07	1.94129825315456e-08	-9.888778172648688e-09
0.03	-0.1608313745759282	0.05838300020319902	0.8977321893454406	0.3805183391466708	-0.259609191065118	-0.2716619931990129	-0.01461613253690585	0.03586554676410945	0.03586554676405474	-0.1744439441548787	0.1745145814330038	-0.04093660169338476	-0.009425268122039143	-0.04285773934317574	-0.01344217785909063	-0.01763856940083962	0.1993892458576431	-0.03089772030235386	0.08632060395444337	-0.1286603569586072	0.2388195259295014	0.2388195259295104	0.006028111057621076	-0.001099690343486302	0.08962352226829147	-0.01087604283735273	0.1201695918633246	-0.1135615058905854	-0.05205363629835834	-0.3154405310329216	0.361972092450032	-0.01446585562787339	-0.05989467335318835	75.50959955003161	-11.98884734243676	7.277454938584596	-42.44269059791669	-603.2984132245925	-100.7993296505646	-39.17776513832	-1.291624605618924	-0.4628265324970625	-0.5696010765628763	6.31594510254178	-0.9717066454138928	2.763003414161306	-4.06608197273849	7.594710837069046	7.594710837069925	0.1886786675726737	-0.05373773084659537	2.809509943620456	-0.3486063424674287	-8.300733471410967e-08	1.361693713653486e-07	1.173658301070824e-07	5.957473593095719e-08	-2.355635566119563e-07	7.947356065646919e-09	-1.668310367092245e-08
